Coordinates
version=1
nRows=5
nColumns=46
inDegrees=yes

Units are S.I. units (second, meters, Newtons, ...)
Angles are in degrees.

endheader
time	pelvis_tilt	pelvis_list	pelvis_rotation	pelvis_tx	pelvis_ty	pelvis_tz	bb_angle	bb_tx	bb_ty	bb_tz	hip_flexion_r	hip_adduction_r	hip_rotation_r	knee_angle_r	knee_angle_r_beta	ankle_angle_r	subtalar_angle_r	mtp_angle_r	crank_angle_r	hip_flexion_l	hip_adduction_l	hip_rotation_l	knee_angle_l	knee_angle_l_beta	ankle_angle_l	subtalar_angle_l	mtp_angle_l	crank_angle_l	lumbar_extension	lumbar_bending	lumbar_rotation	arm_flex_r	arm_add_r	arm_rot_r	elbow_flex_r	pro_sup_r	wrist_flex_r	wrist_dev_r	arm_flex_l	arm_add_l	arm_rot_l	elbow_flex_l	pro_sup_l	wrist_flex_l	wrist_dev_l
      7.50500000	    -20.04860884	      4.32781830	      3.55334557	      0.06517441	      1.11161848	     -0.25699907	      0.00000000	      0.50000000	      0.00000000	      0.25000000	     42.93411476	     -8.55668203	     -0.96734258	     35.19603158	      0.61428663	    -14.50400961	     -9.09420999	      0.00000000	      0.00000000	     98.82888316	      2.53207665	      4.33840776	    108.57017776	      1.89490707	     -4.73098533	    -11.15603439	      0.00000000	      0.00000000	    -61.52022656	     -0.57063349	    -12.44817447	     89.57867487	    -26.33082770	     36.19168758	     72.12589498	     31.45155249	      0.00000000	      0.00000000	     89.67240126	    -52.07537606	     39.65769132	     94.63148584	     35.93341915	      0.00000000	      0.00000000
      7.51000000	    -20.18208584	      4.46210370	      3.96250548	      0.06501719	      1.11264256	     -0.25753662	      0.00000000	      0.50000000	      0.00000000	      0.25000000	     44.06432866	     -8.85183719	     -0.50764962	     38.02594987	      0.66367803	    -15.01723246	    -10.39516516	      0.00000000	      0.00000000	     98.02794814	      2.86126920	      4.04608343	    106.98594024	      1.86725691	     -2.34267537	    -10.69486944	      0.00000000	      0.00000000	    -61.60004432	     -0.40962765	    -12.74924586	     89.57633931	    -26.77358833	     36.25433903	     72.27772872	     31.51776747	      0.00000000	      0.00000000	     89.67883087	    -51.96375078	     39.45069213	     94.81660329	     35.72624333	      0.00000000	      0.00000000
      7.51500000	    -20.27419334	      4.53889157	      4.38079908	      0.06499332	      1.11360926	     -0.25824734	      0.00000000	      0.50000000	      0.00000000	      0.25000000	     45.24842361	     -9.12679590	     -0.04591997	     41.00012884	      0.71558724	    -15.49241713	    -11.45372067	      0.00000000	      0.00000000	     97.05309970	      3.19833925	      3.78970206	    105.23772036	      1.83674472	     -0.05955606	    -10.45320258	      0.00000000	      0.00000000	    -61.70328959	     -0.17443764	    -12.96623773	     89.57319898	    -27.20610546	     36.21771225	     72.34825218	     31.55220931	      0.00000000	      0.00000000	     89.68404576	    -51.87120018	     39.30483611	     94.95448600	     35.58787849	      0.00000000	      0.00000000
      7.52000000	    -20.31615250	      4.66201685	      4.72993395	      0.06498225	      1.11449515	     -0.25875413	      0.00000000	      0.50000000	      0.00000000	      0.25000000	     46.48790194	     -9.34047588	      0.65709061	     44.05183808	      0.76884962	    -16.14827870	    -12.22387274	      0.00000000	      0.00000000	     95.90416250	      3.47676487	      3.52269753	    103.31880822	      1.80325338	      2.20212952	    -10.05087500	      0.00000000	      0.00000000	    -61.80646529	      0.01545560	    -13.19868003	     89.57464498	    -27.57301983	     36.22314756	     72.47075887	     31.60119917	      0.00000000	      0.00000000	     89.68663895	    -51.78763231	     39.16193857	     95.01768185	     35.41364323	      0.00000000	      0.00000000
      7.52500000	    -20.31103019	      4.70280916	      5.01839050	      0.06515245	      1.11516796	     -0.25919690	      0.00000000	      0.50000000	      0.00000000	      0.25000000	     47.74562964	     -9.44846491	      1.34962967	     47.16656554	      0.82321187	    -16.77159959	    -12.70827034	      0.00000000	      0.00000000	     94.64145499	      3.65018427	      3.28997616	    101.29907965	      1.76800247	      4.33112277	     -9.69658897	      0.00000000	      0.00000000	    -61.94237594	      0.17701900	    -13.29020632	     89.56634414	    -28.04014251	     36.29925622	     72.61541380	     31.67836871	      0.00000000	      0.00000000	     89.69009553	    -51.58098495	     39.02171986	     95.05952109	     35.11957628	      0.00000000	      0.00000000
